<svg width="195" height="36" viewBox="0 0 195 36" fill="none" xmlns="http://www.w3.org/2000/svg">
<path d="M22.2667 0H49.8L54.4923 9.08196C55.1801 10.4131 54.2139 12 52.7155 12H19.3007C17.7985 12 16.8325 10.4058 17.5279 9.07419L22.2667 0Z" fill="#1980E7"/>
<path d="M70.1354 19.8603C70.5386 18.9928 69.9052 18 68.9486 18H54.4515C53.8612 18 53.344 18.3952 53.1888 18.9648L51 27H66.817L70.1354 19.8603Z" fill="#1980E7"/>
<path d="M0.864639 19.8603C0.461449 18.9928 1.09483 18 2.05144 18H16.5485C17.1388 18 17.656 18.3952 17.8112 18.9648L20 27H4.18301L0.864639 19.8603Z" fill="#1980E7"/>
<path d="M24.4745 34.2747C24.7118 34.6656 25.1359 34.9043 25.5932 34.9043H45.4544C45.9139 34.9043 46.3397 34.6633 46.5763 34.2694L51 26.9043H20L24.4745 34.2747Z" fill="#1980E7"/>
<path d="M91.62 29.3C89.82 29.3 88.21 28.92 86.79 28.16C85.37 27.38 84.25 26.32 83.43 24.98C82.61 23.64 82.2 22.12 82.2 20.42C82.2 18.72 82.61 17.21 83.43 15.89C84.25 14.55 85.37 13.5 86.79 12.74C88.21 11.96 89.82 11.57 91.62 11.57C93.18 11.57 94.54 11.81 95.7 12.29C96.88 12.75 97.88 13.48 98.7 14.48L96.24 16.82C95.64 16.12 94.96 15.61 94.2 15.29C93.44 14.95 92.62 14.78 91.74 14.78C90.64 14.78 89.65 15.02 88.77 15.5C87.91 15.98 87.23 16.65 86.73 17.51C86.25 18.35 86.01 19.32 86.01 20.42C86.01 21.52 86.25 22.5 86.73 23.36C87.23 24.22 87.91 24.89 88.77 25.37C89.65 25.85 90.64 26.09 91.74 26.09C92.62 26.09 93.44 25.92 94.2 25.58C94.96 25.24 95.64 24.72 96.24 24.02L98.7 26.39C97.88 27.37 96.88 28.1 95.7 28.58C94.52 29.06 93.16 29.3 91.62 29.3ZM98.9262 29L106.726 11.84H110.476L118.246 29H114.496L107.956 13.76H109.216L102.616 29H98.9262ZM102.796 25.28L103.816 22.4H112.756L113.776 25.28H102.796ZM120.7 29V11.84H128.11C129.65 11.84 130.98 12.09 132.1 12.59C133.22 13.07 134.08 13.77 134.68 14.69C135.3 15.61 135.61 16.72 135.61 18.02C135.61 19.3 135.3 20.4 134.68 21.32C134.08 22.24 133.22 22.94 132.1 23.42C130.98 23.9 129.65 24.14 128.11 24.14H122.8L124.48 22.49V29H120.7ZM131.86 29L127.45 22.76H131.53L135.94 29H131.86ZM124.48 22.94L123.1 21.17H127.84C129.16 21.17 130.15 20.9 130.81 20.36C131.47 19.8 131.8 19.02 131.8 18.02C131.8 17.02 131.47 16.25 130.81 15.71C130.15 15.17 129.16 14.9 127.84 14.9H123.1L124.48 13.16V22.94ZM139.801 29V11.84H148.141C150.321 11.84 151.961 12.25 153.061 13.07C154.181 13.89 154.741 14.98 154.741 16.34C154.741 17.68 154.281 18.74 153.361 19.52C152.461 20.3 151.241 20.69 149.701 20.69L150.181 19.73C151.841 19.73 153.161 20.12 154.141 20.9C155.121 21.68 155.611 22.81 155.611 24.29C155.611 25.77 155.021 26.93 153.841 27.77C152.661 28.59 150.931 29 148.651 29H139.801ZM143.581 26.21H148.411C149.511 26.21 150.351 26.03 150.931 25.67C151.511 25.29 151.801 24.72 151.801 23.96C151.801 23.18 151.511 22.61 150.931 22.25C150.351 21.89 149.511 21.71 148.411 21.71H143.071V18.98H147.721C148.761 18.98 149.551 18.8 150.091 18.44C150.651 18.06 150.931 17.51 150.931 16.79C150.931 16.09 150.651 15.56 150.091 15.2C149.551 14.82 148.761 14.63 147.721 14.63H143.581V26.21ZM156.553 29L164.353 11.84H168.103L175.873 29H172.123L165.583 13.76H166.843L160.243 29H156.553ZM160.423 25.28L161.443 22.4H170.383L171.403 25.28H160.423ZM178.327 29V11.84H185.737C187.277 11.84 188.607 12.09 189.727 12.59C190.847 13.07 191.707 13.77 192.307 14.69C192.927 15.61 193.237 16.72 193.237 18.02C193.237 19.3 192.927 20.4 192.307 21.32C191.707 22.24 190.847 22.94 189.727 23.42C188.607 23.9 187.277 24.14 185.737 24.14H180.427L182.107 22.49V29H178.327ZM189.487 29L185.077 22.76H189.157L193.567 29H189.487ZM182.107 22.94L180.727 21.17H185.467C186.787 21.17 187.777 20.9 188.437 20.36C189.097 19.8 189.427 19.02 189.427 18.02C189.427 17.02 189.097 16.25 188.437 15.71C187.777 15.17 186.787 14.9 185.467 14.9H180.727L182.107 13.16V22.94Z" fill="#1D252D"/>
</svg>
