<svg xmlns="http://www.w3.org/2000/svg" xmlns:xlink="http://www.w3.org/1999/xlink" version="1.1">
    <!-- для css -->
    <view id="angle-down-view" viewBox="0 0 19 20"/>
    <use xlink:href="#angle-down"  fill="#838383" width="19" height="20" x="0" y="0"/>
    <view id="angle-down-white-view" viewBox="20 0 19 20"/>
    <use xlink:href="#angle-down"  fill="#fff" width="19" height="20" x="20" y="0"/>
    <view id="angle-left-view" viewBox="40 0 24 25"/>
    <use xlink:href="#angle-left" fill="red" width="24" height="25" x="40" y="0"/>
    <view id="icon-benefit-1-view" viewBox="70 0 30 30"/>
    <use xlink:href="#icon-benefit-1" width="30" height="30" x="70" y="0"/>
    <view id="icon-benefit-2-view" viewBox="100 0 30 30"/>
    <use xlink:href="#icon-benefit-2" width="30" height="30" x="100" y="0"/>
    <view id="icon-benefit-3-view" viewBox="130 0 30 30"/>
    <use xlink:href="#icon-benefit-3" width="30" height="30" x="130" y="0"/>
    <view id="icon-check-view" viewBox="160 0 30 30"/>
    <use xlink:href="#icon-check" width="30" height="30" x="160" y="0"/>

    <!-- для html -->
    <symbol viewBox="0 0 18 18" id="icon-location">
        <path d="M9.00006 1.5C5.69181 1.5 3.00006 4.19175 3.00006 7.49625C2.97831 12.33 8.77206 16.338 9.00006 16.5C9.00006 16.5 15.0218 12.33 15.0001 7.5C15.0001 4.19175 12.3083 1.5 9.00006 1.5ZM9.00006 10.5C7.34256 10.5 6.00006 9.1575 6.00006 7.5C6.00006 5.8425 7.34256 4.5 9.00006 4.5C10.6576 4.5 12.0001 5.8425 12.0001 7.5C12.0001 9.1575 10.6576 10.5 9.00006 10.5Z" fill="#1980E7"/>
    </symbol>
    <symbol viewBox="0 0 18 18" id="icon-phone">
        <path d="M14.4223 11.4453L12.5173 11.2278C12.2933 11.2015 12.0662 11.2263 11.8532 11.3003C11.6402 11.3744 11.4467 11.4958 11.2873 11.6553L9.90729 13.0353C7.77818 11.9525 6.04762 10.2219 4.96479 8.09281L6.35229 6.70531C6.67479 6.38281 6.83229 5.93281 6.77979 5.47531L6.56229 3.58531C6.51977 3.21945 6.34418 2.88199 6.06896 2.6372C5.79375 2.39241 5.43812 2.25738 5.06979 2.25781H3.77229C2.92479 2.25781 2.21979 2.96281 2.27229 3.81031C2.66979 10.2153 7.79229 15.3303 14.1898 15.7278C15.0373 15.7803 15.7423 15.0753 15.7423 14.2278V12.9303C15.7498 12.1728 15.1798 11.5353 14.4223 11.4453Z" fill="#1980E7"/>
    </symbol>
    <symbol viewBox="0 0 18 18" id="icon-phones">
        <path d="M14.4223 11.4453L12.5173 11.2278C12.2933 11.2015 12.0662 11.2263 11.8532 11.3003C11.6402 11.3744 11.4467 11.4958 11.2873 11.6553L9.90729 13.0353C7.77818 11.9525 6.04762 10.2219 4.96479 8.09281L6.35229 6.70531C6.67479 6.38281 6.83229 5.93281 6.77979 5.47531L6.56229 3.58531C6.51977 3.21945 6.34418 2.88199 6.06896 2.6372C5.79375 2.39241 5.43812 2.25738 5.06979 2.25781H3.77229C2.92479 2.25781 2.21979 2.96281 2.27229 3.81031C2.66979 10.2153 7.79229 15.3303 14.1898 15.7278C15.0373 15.7803 15.7423 15.0753 15.7423 14.2278V12.9303C15.7498 12.1728 15.1798 11.5353 14.4223 11.4453Z" fill="#1980E7"/>
    </symbol>
    <symbol viewBox="0 0 18 18" id="icon-cell">
        <path d="M14.4223 11.4453L12.5173 11.2278C12.2933 11.2015 12.0662 11.2263 11.8532 11.3003C11.6402 11.3744 11.4467 11.4958 11.2873 11.6553L9.90729 13.0353C7.77818 11.9525 6.04762 10.2219 4.96479 8.09281L6.35229 6.70531C6.67479 6.38281 6.83229 5.93281 6.77979 5.47531L6.56229 3.58531C6.51977 3.21945 6.34418 2.88199 6.06896 2.6372C5.79375 2.39241 5.43812 2.25738 5.06979 2.25781H3.77229C2.92479 2.25781 2.21979 2.96281 2.27229 3.81031C2.66979 10.2153 7.79229 15.3303 14.1898 15.7278C15.0373 15.7803 15.7423 15.0753 15.7423 14.2278V12.9303C15.7498 12.1728 15.1798 11.5353 14.4223 11.4453Z" fill="#1980E7"/>
    </symbol>
    <symbol viewBox="0 0 19 20" id="angle-down">
        <path d="M10.5304 13.8158L16.836 7.19788C16.9413 7.08746 17 6.94075 17 6.78819C17 6.63563 16.9413 6.48893 16.836 6.37851L16.8289 6.37138C16.7779 6.31766 16.7164 6.27489 16.6483 6.24566C16.5803 6.21643 16.5069 6.20136 16.4329 6.20136C16.3588 6.20136 16.2854 6.21643 16.2174 6.24566C16.1493 6.27489 16.0879 6.31766 16.0368 6.37138L10.0993 12.6034L4.1642 6.37138C4.11317 6.31767 4.05174 6.27489 3.98366 6.24566C3.91558 6.21643 3.84226 6.20136 3.76817 6.20136C3.69408 6.20136 3.62076 6.21643 3.55268 6.24566C3.48459 6.27489 3.42317 6.31767 3.37214 6.37138L3.36501 6.37851C3.25975 6.48893 3.20102 6.63564 3.20102 6.78819C3.20102 6.94075 3.25975 7.08746 3.36501 7.19788L9.67064 13.8158C9.72609 13.874 9.79278 13.9204 9.86668 13.952C9.94057 13.9837 10.0201 14 10.1005 14C10.1809 14 10.2605 13.9837 10.3343 13.952C10.4082 13.9204 10.4749 13.874 10.5304 13.8158Z"/>
    </symbol>
    <symbol viewBox="0 0 25 24" id="angle-left">
        <path d="M8.57054 12.5427L16.93 20.5077C17.0695 20.6407 17.2548 20.7148 17.4475 20.7148C17.6402 20.7148 17.8256 20.6407 17.965 20.5077L17.974 20.4987C18.0419 20.4342 18.0959 20.3567 18.1328 20.2707C18.1698 20.1847 18.1888 20.092 18.1888 19.9985C18.1888 19.9049 18.1698 19.8122 18.1328 19.7262C18.0959 19.6402 18.0419 19.5627 17.974 19.4982L10.102 11.9982L17.974 4.5012C18.0419 4.43674 18.0959 4.35915 18.1328 4.27315C18.1698 4.18715 18.1888 4.09454 18.1888 4.00095C18.1888 3.90736 18.1698 3.81475 18.1328 3.72875C18.0959 3.64275 18.0419 3.56516 17.974 3.5007L17.965 3.4917C17.8256 3.35873 17.6402 3.28456 17.4475 3.28456C17.2548 3.28456 17.0695 3.35873 16.93 3.4917L8.57054 11.4567C8.49702 11.5267 8.43849 11.611 8.3985 11.7043C8.35851 11.7977 8.33789 11.8982 8.33789 11.9997C8.33789 12.1012 8.35851 12.2017 8.3985 12.2951C8.43849 12.3884 8.49702 12.4727 8.57054 12.5427Z"  />
    </symbol>
    <symbol viewBox="0 0 25 24" id="angle-right">
        <path d="M16.4295 11.4573L8.06996 3.4923C7.93048 3.35933 7.74516 3.28516 7.55246 3.28516C7.35975 3.28516 7.17444 3.35933 7.03496 3.4923L7.02596 3.5013C6.95811 3.56576 6.90408 3.64335 6.86716 3.72935C6.83024 3.81535 6.8112 3.90796 6.8112 4.00155C6.8112 4.09514 6.83024 4.18775 6.86716 4.27375C6.90408 4.35975 6.95811 4.43734 7.02596 4.5018L14.898 12.0018L7.02596 19.4988C6.95811 19.5633 6.90408 19.6408 6.86716 19.7268C6.83023 19.8128 6.8112 19.9055 6.8112 19.999C6.8112 20.0926 6.83023 20.1852 6.86716 20.2712C6.90408 20.3572 6.95811 20.4348 7.02596 20.4993L7.03496 20.5083C7.17444 20.6413 7.35975 20.7154 7.55246 20.7154C7.74516 20.7154 7.93048 20.6413 8.06996 20.5083L16.4295 12.5433C16.503 12.4733 16.5615 12.389 16.6015 12.2957C16.6415 12.2023 16.6621 12.1018 16.6621 12.0003C16.6621 11.8988 16.6415 11.7983 16.6015 11.7049C16.5615 11.6116 16.503 11.5273 16.4295 11.4573Z" fill="blue" />
    </symbol>
    <symbol viewBox="0 0 30 30" id="icon-benefit-1">
        <rect width="30" height="30" rx="15" fill="#EFF3F8"/>
        <path d="M12.1875 14.375C11.5833 14.375 11.0677 14.1615 10.6406 13.7344C10.2135 13.3073 10 12.7917 10 12.1875C10 11.5833 10.2135 11.0677 10.6406 10.6406C11.0677 10.2135 11.5833 10 12.1875 10C12.7917 10 13.3073 10.2135 13.7344 10.6406C14.1615 11.0677 14.375 11.5833 14.375 12.1875C14.375 12.7917 14.1615 13.3073 13.7344 13.7344C13.3073 14.1615 12.7917 14.375 12.1875 14.375ZM12.1875 13.125C12.4479 13.125 12.6694 13.034 12.8519 12.8519C13.0344 12.6698 13.1254 12.4483 13.125 12.1875C13.1246 11.9267 13.0335 11.7054 12.8519 11.5238C12.6702 11.3421 12.4488 11.2508 12.1875 11.25C11.9262 11.2492 11.705 11.3404 11.5238 11.5238C11.3425 11.7071 11.2513 11.9283 11.25 12.1875C11.2487 12.4467 11.34 12.6681 11.5238 12.8519C11.7075 13.0356 11.9288 13.1267 12.1875 13.125ZM17.8125 20C17.2083 20 16.6927 19.7865 16.2656 19.3594C15.8385 18.9323 15.625 18.4167 15.625 17.8125C15.625 17.2083 15.8385 16.6927 16.2656 16.2656C16.6927 15.8385 17.2083 15.625 17.8125 15.625C18.4167 15.625 18.9323 15.8385 19.3594 16.2656C19.7865 16.6927 20 17.2083 20 17.8125C20 18.4167 19.7865 18.9323 19.3594 19.3594C18.9323 19.7865 18.4167 20 17.8125 20ZM17.8125 18.75C18.0729 18.75 18.2944 18.659 18.4769 18.4769C18.6594 18.2948 18.7504 18.0733 18.75 17.8125C18.7496 17.5517 18.6585 17.3304 18.4769 17.1487C18.2952 16.9671 18.0737 16.8758 17.8125 16.875C17.5512 16.8742 17.33 16.9654 17.1487 17.1487C16.9675 17.3321 16.8762 17.5533 16.875 17.8125C16.8738 18.0717 16.965 18.2931 17.1487 18.4769C17.3325 18.6606 17.5538 18.7517 17.8125 18.75ZM10.875 20L10 19.125L19.125 10L20 10.875L10.875 20Z" fill="#1980E7"/>
    </symbol>
    <symbol viewBox="0 0 30 30" id="icon-benefit-2">
        <rect width="30" height="30" rx="15" fill="#EFF3F8"/>
        <path fill-rule="evenodd" clip-rule="evenodd" d="M19.5229 11.978C19.6282 12.0835 19.6874 12.2264 19.6874 12.3755C19.6874 12.5245 19.6282 12.6675 19.5229 12.773L14.2729 18.023C14.1674 18.1283 14.0244 18.1875 13.8754 18.1875C13.7263 18.1875 13.5833 18.1283 13.4779 18.023L10.4779 15.023C10.4226 14.9715 10.3783 14.9094 10.3475 14.8404C10.3168 14.7714 10.3002 14.6969 10.2989 14.6214C10.2976 14.5458 10.3115 14.4708 10.3398 14.4008C10.3681 14.3307 10.4102 14.2671 10.4636 14.2137C10.517 14.1603 10.5806 14.1182 10.6507 14.0899C10.7207 14.0616 10.7957 14.0477 10.8713 14.049C10.9468 14.0504 11.0213 14.0669 11.0903 14.0976C11.1593 14.1284 11.2214 14.1727 11.2729 14.228L13.8754 16.8305L18.7279 11.978C18.8333 11.8726 18.9763 11.8135 19.1254 11.8135C19.2744 11.8135 19.4174 11.8726 19.5229 11.978Z" fill="#1980E7"/>
    </symbol>
    <symbol viewBox="0 0 30 30" id="icon-benefit-3">
        <rect width="30" height="30" rx="15" fill="#EFF3F8"/>
        <path d="M9.59961 9.60039C9.59961 9.28213 9.72604 8.97691 9.95108 8.75186C10.1761 8.52682 10.4813 8.40039 10.7996 8.40039H16.7888C17.107 8.40046 17.4122 8.52693 17.6372 8.75199L20.048 11.1628C20.2731 11.3878 20.3995 11.693 20.3996 12.0112V20.4004C20.3996 20.7186 20.2732 21.0239 20.0481 21.2489C19.8231 21.474 19.5179 21.6004 19.1996 21.6004H10.7996C10.4813 21.6004 10.1761 21.474 9.95108 21.2489C9.72604 21.0239 9.59961 20.7186 9.59961 20.4004V9.60039ZM10.7996 9.30039C10.72 9.30039 10.6437 9.332 10.5875 9.38826C10.5312 9.44452 10.4996 9.52083 10.4996 9.60039V20.4004C10.4996 20.48 10.5312 20.5563 10.5875 20.6125C10.6437 20.6688 10.72 20.7004 10.7996 20.7004H19.1996C19.2792 20.7004 19.3555 20.6688 19.4117 20.6125C19.468 20.5563 19.4996 20.48 19.4996 20.4004V12.9004H17.0996C16.7813 12.9004 16.4761 12.774 16.2511 12.5489C16.026 12.3239 15.8996 12.0187 15.8996 11.7004V9.30039H10.7996ZM16.7996 9.30039V11.7004C16.7996 11.78 16.8312 11.8563 16.8875 11.9125C16.9437 11.9688 17.02 12.0004 17.0996 12.0004H19.4996C19.497 11.9245 19.4657 11.8525 19.412 11.7988L17.0012 9.38799C16.9475 9.33434 16.8755 9.30303 16.7996 9.30039Z" fill="#1980E7"/>
    </symbol>
    <symbol viewBox="0 0 30 30" id="icon-check">
        <polyline style="fill:none;stroke:#6182bd; stroke-width:2;stroke-linecap:round;stroke-linejoin:round;stroke-miterlimit:10;" points="4,16 11,23 27,7 "/>
    </symbol>
</svg>