<svg xmlns="http://www.w3.org/2000/svg" xmlns:xlink="http://www.w3.org/1999/xlink" version="1.1">
    <!-- для css -->
    <view id="angle-down-view" viewBox="0 0 19 20"/>
    <use xlink:href="#angle-down"  fill="#838383" width="19" height="20" x="0" y="0"/>
    <view id="angle-down-white-view" viewBox="0 0 19 20"/>
    <use xlink:href="#angle-down"  fill="#fff" width="19" height="20" x="0" y="0"/>

    <!-- для html -->
    <symbol viewBox="0 0 18 18" id="icon-location">
        <path d="M9.00006 1.5C5.69181 1.5 3.00006 4.19175 3.00006 7.49625C2.97831 12.33 8.77206 16.338 9.00006 16.5C9.00006 16.5 15.0218 12.33 15.0001 7.5C15.0001 4.19175 12.3083 1.5 9.00006 1.5ZM9.00006 10.5C7.34256 10.5 6.00006 9.1575 6.00006 7.5C6.00006 5.8425 7.34256 4.5 9.00006 4.5C10.6576 4.5 12.0001 5.8425 12.0001 7.5C12.0001 9.1575 10.6576 10.5 9.00006 10.5Z" fill="#1980E7"/>
    </symbol>
    <symbol viewBox="0 0 18 18" id="icon-phone">
        <path d="M14.4223 11.4453L12.5173 11.2278C12.2933 11.2015 12.0662 11.2263 11.8532 11.3003C11.6402 11.3744 11.4467 11.4958 11.2873 11.6553L9.90729 13.0353C7.77818 11.9525 6.04762 10.2219 4.96479 8.09281L6.35229 6.70531C6.67479 6.38281 6.83229 5.93281 6.77979 5.47531L6.56229 3.58531C6.51977 3.21945 6.34418 2.88199 6.06896 2.6372C5.79375 2.39241 5.43812 2.25738 5.06979 2.25781H3.77229C2.92479 2.25781 2.21979 2.96281 2.27229 3.81031C2.66979 10.2153 7.79229 15.3303 14.1898 15.7278C15.0373 15.7803 15.7423 15.0753 15.7423 14.2278V12.9303C15.7498 12.1728 15.1798 11.5353 14.4223 11.4453Z" fill="#1980E7"/>
    </symbol>
    <symbol viewBox="0 0 19 20" id="angle-down">
        <path d="M10.5304 13.8158L16.836 7.19788C16.9413 7.08746 17 6.94075 17 6.78819C17 6.63563 16.9413 6.48893 16.836 6.37851L16.8289 6.37138C16.7779 6.31766 16.7164 6.27489 16.6483 6.24566C16.5803 6.21643 16.5069 6.20136 16.4329 6.20136C16.3588 6.20136 16.2854 6.21643 16.2174 6.24566C16.1493 6.27489 16.0879 6.31766 16.0368 6.37138L10.0993 12.6034L4.1642 6.37138C4.11317 6.31767 4.05174 6.27489 3.98366 6.24566C3.91558 6.21643 3.84226 6.20136 3.76817 6.20136C3.69408 6.20136 3.62076 6.21643 3.55268 6.24566C3.48459 6.27489 3.42317 6.31767 3.37214 6.37138L3.36501 6.37851C3.25975 6.48893 3.20102 6.63564 3.20102 6.78819C3.20102 6.94075 3.25975 7.08746 3.36501 7.19788L9.67064 13.8158C9.72609 13.874 9.79278 13.9204 9.86668 13.952C9.94057 13.9837 10.0201 14 10.1005 14C10.1809 14 10.2605 13.9837 10.3343 13.952C10.4082 13.9204 10.4749 13.874 10.5304 13.8158Z"/>
    </symbol>
</svg>